# Blender v2.73 (sub 0) OBJ File: 'areia.blend'
# www.blender.org
o Cube
v -82.382996 -1.000000 -163.539734
v -82.382996 -1.000000 127.539749
v 292.382996 -1.000000 127.539719
v 292.382935 -1.000000 -163.539795
v -82.383087 1.000000 -163.539673
v -82.382874 1.000000 127.539841
v 292.383057 1.000000 127.539703
v 292.382996 1.000000 -163.539749
vt 0.074866 0.849133
vt 0.074866 0.515838
vt 0.408160 0.515838
vt 0.619400 0.515838
vt 0.619400 0.849133
vt 0.408160 0.849133
vt 0.015464 0.994379
vt 0.015464 0.016239
vt 0.993604 0.016239
vt 0.993604 0.994379
vt 0.000000 0.000000
vn 0.000000 1.000000 0.000000
vn -1.000000 0.000100 0.000000
vn -1.000000 0.000000 0.000000
vn 0.000000 -1.000000 0.000000
vn 1.000000 -0.000000 -0.000000
vn -0.000000 -0.000000 -1.000000
vn 0.000000 -0.000000 1.000000
s off
f 1/1/1 2/2/1 3/3/1
f 3/3/2 7/4/2 8/5/2
f 4/6/1 1/1/1 3/3/1
f 4/6/3 3/3/3 8/5/3
f 8/7/4 7/8/4 6/9/4
f 5/10/4 8/7/4 6/9/4
f 5/11/5 6/11/5 2/11/5
f 6/11/6 7/11/6 3/11/6
f 1/11/7 4/11/7 8/11/7
f 1/11/5 5/11/5 2/11/5
f 2/11/6 6/11/6 3/11/6
f 5/11/7 1/11/7 8/11/7
