# Blender v2.73 (sub 0) OBJ File: 'car4.blend'
# www.blender.org
o Cube
v -0.212466 -1.000000 -1.000000
v -0.212466 -1.000000 1.000000
v -2.598782 -1.000000 1.000000
v -2.598782 -1.000000 -1.000000
v -0.333163 0.988292 -0.999820
v -0.320416 0.989982 1.000139
v -2.588221 0.999914 1.000000
v -2.588221 0.999914 -1.000000
v -0.136991 -0.116183 -1.000138
v -0.124243 -0.114493 0.999821
v -2.609343 -0.129902 1.000000
v -2.609342 -0.129902 -1.000000
v 1.245135 -0.925080 -0.997797
v 1.245135 -0.925080 1.002203
v 1.217051 -0.371048 -0.997797
v 1.217051 -0.371048 1.002203
v -3.641999 -1.000000 1.000000
v -3.641999 -1.000000 -1.000001
v -3.641999 -0.129988 0.999999
v -3.641999 -0.129988 -1.000001
v -0.212466 -1.293109 -1.000000
v -0.212466 -1.293109 1.000000
v -2.598782 -1.293109 1.000000
v -2.598782 -1.293109 -1.000000
v 1.096381 -1.177638 -0.997797
v 1.096381 -1.177638 1.002203
v -3.641999 -1.293109 1.000000
v -3.641999 -1.293109 -1.000001
v -0.175463 0.108807 -0.771762
v -0.291781 0.763687 -0.771574
v -0.165626 0.110111 0.771574
v -0.281944 0.764992 0.771760
v -0.136991 -0.116183 -1.000138
v -0.124243 -0.114493 0.999821
v -2.606698 -0.131245 1.000000
v -2.606697 -0.131245 -1.000000
v -0.175463 0.108807 -0.771762
v -0.165626 0.110111 0.771574
v -2.603466 0.066605 0.802123
v -2.591453 0.802063 0.802123
v -2.603466 0.066605 -0.802124
v -2.591453 0.802063 -0.802123
v -0.462669 0.999051 -0.998214
v -0.449820 0.998551 1.001744
v -0.456995 -0.122696 -0.998532
v -0.444145 -0.123197 1.001427
v -0.456683 0.105560 -0.770156
v -0.460047 0.770681 -0.769968
v -0.446767 0.105173 0.773180
v -0.450132 0.770295 0.773366
v -0.456995 -0.122696 -0.998532
v -0.444145 -0.123197 1.001427
v -0.456683 0.105560 -0.770156
v -0.446767 0.105173 0.773180
v -0.231422 -0.121562 -0.975404
v -0.218888 -0.122050 0.975402
v -0.432261 -0.122578 -0.974113
v -0.419727 -0.123066 0.976693
v -0.225545 -1.283421 -0.975732
v -0.213011 -1.283909 0.975074
v -0.426384 -1.284438 -0.974442
v -0.413851 -1.284926 0.976364
v -2.338255 0.995831 1.000000
v -2.338254 0.995831 -1.000000
v -2.356731 -0.135328 1.000000
v -2.356731 -0.135328 -1.000000
v -2.353499 0.062522 0.802123
v -2.341486 0.797980 0.802123
v -2.353499 0.062522 -0.802124
v -2.341486 0.797980 -0.802123
v -2.588221 0.999914 0.798420
v -2.591453 0.802065 1.000000
v -2.588221 0.999914 -0.802121
v -2.591453 0.802062 -1.000000
v -2.606697 -0.131245 -0.802120
v -3.641999 -0.129988 -0.802120
v -2.609342 -0.129902 -0.802120
v -2.606698 -0.131245 0.802126
v -2.609343 -0.129902 0.802127
v -3.641999 -0.129988 0.802127
v -3.451167 -0.129972 1.000000
v -3.451167 -0.129972 0.802127
v -3.451167 -0.129972 -1.000000
v -3.451167 -0.129972 -0.802120
v -2.609315 -0.761008 -0.802120
v -2.609315 -0.761008 0.802127
v -3.451139 -0.761079 0.802127
v -3.451139 -0.761079 -0.802120
v -2.417296 -0.132622 -0.961362
v -2.404762 -0.133110 0.989444
v -2.411419 -1.294482 -0.961691
v -2.398885 -1.294970 0.989115
v -0.461518 0.771625 -0.998279
v -0.448693 0.775708 1.001681
v -2.341575 0.792559 1.000000
v -2.341602 0.790889 -1.000000
v -2.356900 0.989466 -0.986047
v -2.344051 0.988966 1.013912
v -2.354278 0.761096 -0.757801
v -2.344363 0.760710 0.785533
v -2.355750 0.762040 -0.986111
v -2.342924 0.766123 1.013849
v -2.822996 -1.525456 -1.147442
v -2.822996 -1.525456 1.147442
v -2.977313 -1.258171 -1.147442
v -2.977313 -1.258171 1.147442
v -2.923719 -0.954226 -1.147442
v -2.923719 -0.954226 1.147442
v -2.687292 -0.778519 -1.147442
v -2.687292 -0.778519 1.147442
v -2.378658 -0.778519 -1.147442
v -2.378658 -0.778519 1.147442
v -2.142230 -0.954226 -1.147442
v -2.142230 -0.954226 1.147442
v -2.088637 -1.258171 -1.147442
v -2.088637 -1.258171 1.147442
v -2.242954 -1.525456 -1.147442
v -2.242954 -1.525456 1.147442
v -2.532975 -1.631015 -1.147442
v -2.532975 -1.631015 1.147442
v -0.250477 -1.525456 -1.147442
v -0.250477 -1.525456 1.147442
v -0.404794 -1.258171 -1.147442
v -0.404794 -1.258171 1.147442
v -0.351200 -0.954226 -1.147442
v -0.351200 -0.954226 1.147442
v -0.114773 -0.755839 -1.147442
v -0.114773 -0.755839 1.147442
v 0.193861 -0.755839 -1.147442
v 0.193861 -0.755839 1.147442
v 0.430289 -0.954226 -1.147442
v 0.430289 -0.954226 1.147442
v 0.483882 -1.258171 -1.147442
v 0.483882 -1.258171 1.147442
v 0.329566 -1.525456 -1.147442
v 0.329566 -1.525456 1.147442
v 0.039544 -1.631015 -1.147442
v 0.039544 -1.631015 1.147442
v -0.403755 -0.134543 -0.767584
v -2.370685 -0.134543 -0.767584
v -2.370685 -0.134543 -0.991683
v -0.403755 -0.134543 -0.991683
v -0.403755 0.081112 -0.767584
v -2.370685 0.081112 -0.767584
v -2.370685 0.081112 -0.991683
v -0.403755 0.081112 -0.991683
v -0.403755 -0.134543 0.991239
v -2.370685 -0.134543 0.991239
v -2.370685 -0.134543 0.767140
v -0.403755 -0.134543 0.767140
v -0.403755 0.081112 0.991239
v -2.370685 0.081112 0.991239
v -2.370685 0.081112 0.767140
v -0.403755 0.081112 0.767140
v -2.598782 -1.000000 1.000000
v -2.609343 -0.129902 1.000000
v -3.641999 -1.000000 1.000000
v -3.641999 -0.129988 0.999999
v -3.451167 -0.129972 1.000000
v -0.114773 -0.755839 -1.147442
v -0.114773 -0.755839 1.147442
v 0.193861 -0.755839 -1.147442
v 0.193861 -0.755839 1.147442
vt 0.081277 0.699609
vt 0.081800 0.670160
vt 0.282741 0.673725
vt 0.290683 0.514008
vt 0.290551 0.491959
vt 0.630572 0.491955
vt 0.179020 0.942557
vt 0.079808 0.942557
vt 0.079808 0.919236
vt 0.267252 0.976819
vt 0.217361 0.977895
vt 0.217361 0.673063
vt 0.100700 0.665655
vt 0.100700 0.981366
vt 0.016185 0.981366
vt 0.535807 0.486213
vt 0.643858 0.493515
vt 0.646362 0.534786
vt 0.533122 0.523696
vt 0.539654 0.459934
vt 0.637277 0.479659
vt 0.360149 0.523150
vt 0.360159 0.544378
vt 0.284539 0.544715
vt 0.994733 0.976261
vt 0.838539 0.945466
vt 0.839477 0.695586
vt 0.284435 0.523507
vt 0.297825 0.460276
vt 0.270956 0.486213
vt 0.270956 0.463577
vt 0.351520 0.463577
vt 0.634412 0.518194
vt 0.632154 0.539207
vt 0.535808 0.463578
vt 0.641726 0.470980
vt 0.135759 0.977895
vt 0.091084 0.977895
vt 0.091084 0.673063
vt 0.351520 0.486213
vt 0.532954 0.544920
vt 0.255694 0.910590
vt 0.255695 0.816495
vt 0.280896 0.909875
vt 0.604786 0.867189
vt 0.631223 0.867189
vt 0.631223 0.944974
vt 0.488011 0.867189
vt 0.488011 0.944974
vt 0.461573 0.944974
vt 0.439071 0.878945
vt 0.439071 0.851409
vt 0.615770 0.851409
vt 0.243598 0.943831
vt 0.243598 0.967939
vt 0.088898 0.967939
vt 0.628004 0.726859
vt 0.652149 0.751003
vt 0.440648 0.751004
vt 0.568430 0.822019
vt 0.544286 0.846164
vt 0.544286 0.751588
vt 0.237727 0.943743
vt 0.088898 0.943735
vt 0.088918 0.916620
vt 0.239296 0.758974
vt 0.239308 0.884705
vt 0.225587 0.884662
vt 0.610220 0.752332
vt 0.628004 0.751682
vt 0.628004 0.822019
vt 0.586222 0.752511
vt 0.598171 0.821826
vt 0.280578 0.703854
vt 0.261367 0.815289
vt 0.248317 0.793514
vt 0.230694 0.943992
vt 0.266621 0.979919
vt 0.090104 0.979919
vt 0.090104 0.665203
vt 0.126032 0.701131
vt 0.126031 0.943991
vt 0.230695 0.701131
vt 0.267238 0.665841
vt 0.231317 0.944587
vt 0.652149 0.846263
vt 0.652149 0.944401
vt 0.461573 0.867189
vt 0.440648 0.846263
vt 0.257525 0.945292
vt 0.101488 0.946569
vt 0.079966 0.971612
vt 0.460866 0.770347
vt 0.439071 0.748552
vt 0.460866 0.748552
vt 0.637565 0.770347
vt 0.659360 0.748552
vt 0.659360 0.851364
vt 0.460866 0.851365
vt 0.258879 0.904445
vt 0.283708 0.919175
vt 0.281240 0.703153
vt 0.637565 0.748552
vt 0.061541 0.881690
vt 0.144275 0.822538
vt 0.199618 0.831451
vt 0.278293 0.919236
vt 0.278293 0.942556
vt 0.179081 0.942556
vt 0.117437 0.901693
vt 0.094166 0.919134
vt 0.079808 0.703152
vt 0.202822 0.795508
vt 0.277001 0.881690
vt 0.087917 0.742691
vt 0.140348 0.786705
vt 0.259505 0.742202
vt 0.277021 0.681708
vt 0.277021 0.873134
vt 0.088898 0.873134
vt 0.660453 0.772928
vt 0.660453 0.792451
vt 0.635787 0.792451
vt 0.548325 0.720296
vt 0.635721 0.715596
vt 0.461023 0.726521
vt 0.652149 0.751103
vt 0.440648 0.944224
vt 0.225587 0.758932
vt 0.071269 0.758932
vt 0.071269 0.740326
vt 0.225587 0.903262
vt 0.071269 0.903262
vt 0.071269 0.884662
vt 0.453366 0.889395
vt 0.453365 0.715286
vt 0.637190 0.715284
vt 0.474140 0.910492
vt 0.452498 0.912035
vt 0.248317 0.816440
vt 0.057362 0.816440
vt 0.230960 0.396203
vt 0.255280 0.438328
vt 0.209572 0.513923
vt 0.009712 0.195526
vt 0.051349 0.195526
vt 0.051349 0.505123
vt 0.010805 0.195526
vt 0.010805 0.505123
vt 0.184823 0.518905
vt 0.139114 0.502268
vt 0.160502 0.384548
vt 0.049488 0.194758
vt 0.009712 0.505123
vt 0.009748 0.194758
vt 0.049488 0.504355
vt 0.010344 0.197625
vt 0.051998 0.197625
vt 0.051998 0.507345
vt 0.015900 0.198919
vt 0.051503 0.198919
vt 0.051503 0.476287
vt 0.010821 0.499581
vt 0.051720 0.195467
vt 0.012504 0.504355
vt 0.012504 0.194758
vt 0.048765 0.194758
vt 0.195558 0.379259
vt 0.237683 0.403580
vt 0.147655 0.510871
vt 0.053283 0.196094
vt 0.011364 0.196094
vt 0.011364 0.507627
vt 0.251837 0.475146
vt 0.172667 0.520855
vt 0.113906 0.450825
vt 0.053283 0.507627
vt 0.011480 0.200769
vt 0.050961 0.200769
vt 0.050961 0.494333
vt 0.011321 0.197414
vt 0.053219 0.197414
vt 0.053219 0.508947
vt 0.053900 0.507627
vt 0.053900 0.196094
vt 0.012003 0.196094
vt 0.012002 0.507627
vt 0.652149 0.703954
vt 0.652149 0.726759
vt 0.444145 0.726759
vt 0.255639 0.816495
vt 0.255639 0.838235
vt 0.057362 0.838235
vt 0.088898 0.916531
vt 0.088898 0.894921
vt 0.278572 0.894921
vt 0.439381 0.933378
vt 0.439381 0.912101
vt 0.633443 0.912101
vt 0.444145 0.703854
vt 0.444145 0.681049
vt 0.652149 0.681049
vt 0.088898 0.894833
vt 0.088898 0.873222
vt 0.278572 0.873222
vt 0.656450 0.525000
vt 0.643950 0.464062
vt 0.257612 0.535937
vt 0.360013 0.460384
vt 0.283022 0.740326
vt 0.283022 0.843623
vt 0.266902 0.843623
vt 0.195826 0.954645
vt 0.168732 0.984665
vt 0.168732 0.668919
vt 0.099982 0.787272
vt 0.079726 0.787020
vt 0.079727 0.946950
vt 0.266281 0.854314
vt 0.250161 0.854226
vt 0.250729 0.750930
vt 0.253316 0.719117
vt 0.108722 0.722027
vt 0.277427 0.945418
vt 0.260596 0.790345
vt 0.239361 0.866192
vt 0.239361 0.740326
vt 0.442468 0.567323
vt 0.416794 0.457394
vt 0.440906 0.457396
vt 0.014117 0.209082
vt 0.052754 0.209082
vt 0.052754 0.496371
vt 0.282219 0.703174
vt 0.630704 0.514048
vt 0.179020 0.919236
vt 0.269112 0.671993
vt 0.016185 0.665655
vt 0.542609 0.554599
vt 0.995408 0.663649
vt 0.839353 0.664077
vt 0.838407 0.976369
vt 0.283978 0.460377
vt 0.358909 0.459829
vt 0.135758 0.673063
vt 0.280896 0.930537
vt 0.255694 0.930537
vt 0.280896 0.816496
vt 0.604786 0.944974
vt 0.615770 0.878945
vt 0.088898 0.943831
vt 0.464792 0.726859
vt 0.568430 0.751681
vt 0.237747 0.916622
vt 0.598271 0.821648
vt 0.248317 0.703361
vt 0.266622 0.665203
vt 0.278222 0.980363
vt 0.272731 0.980506
vt 0.236182 0.945212
vt 0.231317 0.701763
vt 0.277261 0.969700
vt 0.637565 0.851364
vt 0.179081 0.919236
vt 0.088898 0.681708
vt 0.635787 0.772393
vt 0.635787 0.680833
vt 0.660453 0.680833
vt 0.439381 0.728064
vt 0.439381 0.715436
vt 0.571668 0.680833
vt 0.545421 0.689272
vt 0.652149 0.846164
vt 0.225587 0.740326
vt 0.637192 0.889394
vt 0.057362 0.793514
vt 0.160930 0.513923
vt 0.139542 0.396203
vt 0.185251 0.379566
vt 0.123668 0.486231
vt 0.115222 0.438328
vt 0.246834 0.486231
vt 0.209144 0.384548
vt 0.254852 0.460143
vt 0.230531 0.502268
vt 0.246406 0.412240
vt 0.114793 0.460143
vt 0.123240 0.412240
vt 0.009748 0.504355
vt 0.010344 0.507345
vt 0.015900 0.476287
vt 0.051721 0.499581
vt 0.048765 0.504356
vt 0.116388 0.424967
vt 0.147655 0.387705
vt 0.116388 0.473609
vt 0.237683 0.494997
vt 0.195558 0.519318
vt 0.254320 0.449288
vt 0.172667 0.380796
vt 0.251837 0.426504
vt 0.220570 0.389242
vt 0.130542 0.405117
vt 0.130542 0.496534
vt 0.220570 0.512408
vt 0.011480 0.494333
vt 0.011321 0.508947
vt 0.444145 0.703954
vt 0.057362 0.816496
vt 0.278572 0.916531
vt 0.633443 0.933378
vt 0.652149 0.703854
vt 0.278572 0.894833
vt 0.543750 0.459375
vt 0.282612 0.459375
vt 0.275000 0.557813
vt 0.538544 0.459829
vt 0.266901 0.740326
vt 0.197249 0.695520
vt 0.266848 0.751019
vt 0.280459 0.790734
vt 0.309094 0.567323
vt 0.310429 0.457385
vt 0.014117 0.496371
vt 0.000000 0.000000
vn -1.000000 0.000000 -0.000000
vn -0.066100 -0.997800 0.000200
vn -0.000100 1.000000 0.000000
vn 0.187900 0.982200 -0.000000
vn 0.998700 0.050600 0.000000
vn -0.001500 -0.000100 1.000000
vn 0.001700 -0.000300 -1.000000
vn 0.000000 0.000000 -1.000000
vn -0.000000 0.000000 1.000000
vn 0.001600 -0.000900 -1.000000
vn -0.001700 0.000000 1.000000
vn 0.861700 -0.507500 0.000000
vn 0.016300 0.999900 0.000000
vn -0.016300 -0.999900 -0.000000
vn 1.000000 0.005100 -0.006400
vn 0.017600 -0.999800 0.000700
vn 0.041500 0.999100 -0.001100
vn 0.009500 -0.000200 1.000000
vn -0.005700 -0.000700 -1.000000
vn 0.009600 0.001400 1.000000
vn -0.984600 -0.174900 0.006400
vn -0.999900 0.016300 -0.000000
vn 0.999900 -0.016300 0.000000
vn 1.000000 0.000000 0.000000
vn 0.005100 -1.000000 -0.000300
vn -0.005200 0.999700 -0.023700
vn -0.005000 1.000000 0.004200
vn -0.005100 1.000000 0.000300
vn -0.006400 0.000300 -1.000000
vn 0.006400 -0.000300 1.000000
vn -0.866000 -0.500000 0.000000
vn -0.342000 -0.939700 0.000000
vn -0.984800 0.173600 0.000000
vn -0.596500 0.802600 0.000000
vn 0.000000 1.000000 0.000000
vn 0.596500 0.802600 0.000000
vn 0.984800 0.173600 0.000000
vn 0.866000 -0.500000 0.000000
vn 0.342000 -0.939700 0.000000
vn -0.642800 0.766000 0.000000
vn 0.642800 0.766000 0.000000
vn -0.447200 0.000000 -0.894400
vn -0.000100 -0.000200 -1.000000
vn -0.735000 0.678000 -0.000000
vn 0.731300 -0.682000 0.000000
vn 0.735100 -0.678000 0.000000
vn -0.731300 0.682000 0.000000
vn -0.082800 -0.996600 0.001400
vn 0.185000 0.982700 -0.002000
vn -0.001700 0.000400 1.000000
vn 0.001500 0.000100 -1.000000
vn 0.001700 0.000000 -1.000000
vn -0.001600 0.000900 1.000000
vn 0.011500 -0.999900 -0.000300
vn 0.031500 0.999500 0.000000
vn 0.005700 0.000700 1.000000
vn -0.009500 0.000200 -1.000000
vn 0.005000 -0.000300 1.000000
vn 0.012400 -0.000200 0.999900
vn -0.894400 -0.447200 0.005800
vn -0.012500 -0.001900 -0.999900
vn -0.963300 0.000000 -0.268400
vn -0.005000 0.000300 -1.000000
vn -0.000000 0.000200 1.000000
vn 0.000100 0.000000 1.000000
vn 0.735000 -0.678000 0.000000
vn 0.016800 -0.019000 -0.999700
vn 0.000000 -1.000000 -0.000000
vn 0.087900 -0.996100 0.000000
vn 0.012200 -0.707200 0.706900
vn 0.015800 -0.711200 -0.702800
vn -0.008400 0.706800 0.707300
vn -0.018000 0.710700 -0.703200
vn 0.452800 0.891600 0.000000
vn -0.079500 0.996800 -0.000300
vn -0.019400 0.989800 0.141000
vn -1.000000 -0.005100 0.006400
vn 0.452900 0.891600 0.000000
vn 0.018000 -0.710700 0.703200
vn 0.008400 -0.706800 -0.707300
vn -0.015800 0.711200 0.702800
vn -0.999600 0.000000 -0.029300
vn -0.012200 0.707200 -0.706900
vn 0.452900 0.891500 0.000000
vn -0.056700 0.998400 0.000600
vn -0.027700 0.980200 -0.196200
s off
f 18/1/1 28/2/1 27/3/1
f 6/4/2 44/5/2 43/6/2
f 12/7/3 83/8/3 84/9/3
f 10/10/4 16/11/4 15/12/4
f 15/13/5 16/14/5 14/15/5
f 2/16/6 14/17/6 16/18/6
f 1/19/7 9/20/7 15/21/7
f 4/22/8 24/23/8 28/24/8
f 17/25/1 80/26/1 76/27/1
f 4/22/8 18/28/8 83/29/8
f 17/30/9 27/31/9 23/32/9
f 1/19/10 13/33/10 25/34/10
f 2/16/11 22/35/11 26/36/11
f 14/37/12 26/38/12 25/39/12
f 3/40/9 23/32/9 22/35/9
f 1/19/8 21/41/8 24/23/8
f 74/42/9 36/43/9 96/44/9
f 39/45/9 67/46/9 68/47/9
f 41/48/8 42/49/8 70/50/8
f 40/51/13 68/52/13 70/53/13
f 41/54/14 69/55/14 67/56/14
f 49/57/15 46/58/15 45/59/15
f 53/60/15 51/61/15 93/62/15
f 29/63/16 31/64/16 49/65/16
f 32/66/17 30/67/17 48/68/17
f 32/69/18 50/70/18 54/71/18
f 30/72/19 37/73/19 53/60/19
f 33/74/20 5/75/20 93/76/20
f 38/77/21 34/78/21 6/79/21
f 5/80/21 30/81/21 32/82/21
f 37/83/21 30/81/21 5/80/21
f 9/84/21 31/85/21 37/83/21
f 67/46/22 65/86/22 95/87/22
f 69/88/22 66/89/22 65/86/22
f 71/90/14 73/91/14 64/92/14
f 39/93/23 35/94/23 78/95/23
f 41/96/23 36/97/23 74/98/23
f 39/93/23 40/99/23 72/52/23
f 42/100/23 73/101/23 71/102/23
f 41/96/23 75/103/23 36/97/23
f 82/104/24 87/105/24 88/106/24
f 39/93/23 78/95/23 75/103/23
f 11/107/3 79/108/3 82/109/3
f 84/110/3 76/111/3 80/112/3
f 85/113/3 88/106/3 87/105/3
f 84/114/9 88/106/9 85/113/9
f 82/104/8 79/115/8 86/116/8
f 77/117/1 85/113/1 86/116/1
f 58/118/25 90/119/25 89/120/25
f 72/121/8 7/122/8 63/123/8
f 46/124/8 52/125/8 94/126/8
f 54/71/15 50/70/15 94/127/15
f 69/88/22 70/50/22 96/128/22
f 50/129/26 100/130/26 102/131/26
f 93/132/27 101/133/27 99/134/27
f 48/68/28 99/134/28 100/130/28
f 44/135/25 98/136/25 97/137/25
f 94/126/29 102/138/29 98/139/29
f 93/76/30 43/140/30 97/141/30
f 118/142/9 116/143/9 112/144/9
f 105/145/31 103/146/31 104/147/31
f 103/146/32 119/148/32 120/149/32
f 119/150/8 103/151/8 109/152/8
f 107/153/33 105/145/33 106/154/33
f 109/155/34 107/153/34 108/156/34
f 111/157/35 109/158/35 110/159/35
f 113/160/36 111/161/36 112/162/36
f 116/163/37 115/148/37 113/164/37
f 118/165/38 117/166/38 115/167/38
f 119/148/39 117/166/39 118/165/39
f 136/168/9 134/169/9 126/170/9
f 123/171/31 121/172/31 122/173/31
f 122/173/32 121/172/32 137/171/32
f 135/174/8 121/175/8 125/176/8
f 125/172/33 123/171/33 124/177/33
f 127/178/40 125/179/40 126/180/40
f 131/181/41 129/182/41 130/183/41
f 134/184/37 133/185/37 131/181/37
f 135/186/38 133/185/38 134/184/38
f 137/171/39 135/186/39 136/187/39
f 144/188/9 140/189/9 139/190/9
f 146/191/8 142/192/8 141/193/8
f 145/194/35 144/195/35 143/196/35
f 152/197/9 148/198/9 147/199/9
f 154/200/8 150/201/8 149/202/8
f 153/203/35 152/204/35 151/205/35
f 10/206/42 34/207/42 3/208/42
f 9/20/43 1/19/43 36/209/43
f 84/210/44 42/211/44 74/212/44
f 74/213/9 8/214/9 20/215/9
f 42/100/8 84/110/8 76/111/8
f 76/216/45 20/217/45 8/218/45
f 40/219/46 72/220/46 81/221/46
f 40/222/8 82/223/8 80/112/8
f 7/224/47 71/90/47 80/225/47
f 72/220/9 7/226/9 19/227/9
f 157/228/9 159/229/9 158/230/9
f 162/231/35 160/232/35 161/233/35
f 17/234/1 18/1/1 27/3/1
f 5/235/48 6/4/48 43/6/48
f 77/236/3 12/7/3 84/9/3
f 9/237/49 10/10/49 15/12/49
f 13/238/5 15/13/5 14/15/5
f 10/239/50 2/16/50 16/18/50
f 13/33/51 1/19/51 15/21/51
f 18/28/8 4/22/8 28/24/8
f 76/27/1 18/240/1 17/25/1
f 18/240/1 76/27/1 20/241/1
f 17/25/1 19/242/1 80/26/1
f 18/28/8 20/243/8 83/29/8
f 83/29/8 12/244/8 4/22/8
f 3/40/9 17/30/9 23/32/9
f 21/41/52 1/19/52 25/34/52
f 14/17/53 2/16/53 26/36/53
f 13/245/12 14/37/12 25/39/12
f 2/16/9 3/40/9 22/35/9
f 4/22/8 1/19/8 24/23/8
f 64/246/9 8/247/9 74/42/9
f 74/42/9 96/44/9 64/246/9
f 96/44/9 36/43/9 66/248/9
f 40/249/9 39/45/9 68/47/9
f 69/88/8 41/48/8 70/50/8
f 42/250/13 40/51/13 70/53/13
f 39/251/14 41/54/14 67/56/14
f 47/252/15 49/57/15 45/59/15
f 48/253/15 53/60/15 93/62/15
f 47/254/54 29/63/54 49/65/54
f 50/129/55 32/66/55 48/68/55
f 38/255/56 32/69/56 54/71/56
f 48/253/57 30/72/57 53/60/57
f 93/76/58 51/256/58 33/74/58
f 5/75/59 43/140/59 93/76/59
f 32/82/21 38/77/21 6/79/21
f 6/79/21 5/80/21 32/82/21
f 33/257/21 37/83/21 5/80/21
f 9/84/60 34/258/60 10/259/60
f 37/83/9 33/257/9 9/84/9
f 10/259/9 38/260/9 31/85/9
f 31/85/9 29/261/9 37/83/9
f 31/85/21 9/84/21 10/259/21
f 68/47/22 67/46/22 95/87/22
f 67/46/22 69/88/22 65/86/22
f 71/90/14 63/262/14 7/224/14
f 73/91/14 8/218/14 64/92/14
f 64/92/14 63/262/14 71/90/14
f 42/263/23 41/96/23 74/98/23
f 35/94/23 39/93/23 72/52/23
f 40/222/23 42/100/23 71/102/23
f 84/114/24 82/104/24 88/106/24
f 41/96/23 39/93/23 75/103/23
f 81/264/3 11/107/3 82/109/3
f 82/223/3 84/110/3 80/112/3
f 86/116/3 85/113/3 87/105/3
f 77/117/9 84/114/9 85/113/9
f 87/105/8 82/104/8 86/116/8
f 79/115/1 77/117/1 86/116/1
f 57/265/25 58/118/25 89/120/25
f 95/266/8 65/267/8 35/268/8
f 72/121/8 63/123/8 95/266/8
f 95/266/8 35/268/8 72/121/8
f 44/269/61 6/270/61 34/271/61
f 44/269/62 34/271/62 10/272/62
f 94/126/63 44/269/63 10/272/63
f 94/126/63 10/272/63 46/124/63
f 52/273/15 54/71/15 94/127/15
f 66/89/22 69/88/22 96/128/22
f 94/274/26 50/129/26 102/131/26
f 48/68/27 93/132/27 99/134/27
f 50/129/28 48/68/28 100/130/28
f 43/275/25 44/135/25 97/137/25
f 44/269/29 94/126/29 98/139/29
f 101/276/30 93/76/30 97/141/30
f 110/277/9 104/278/9 120/279/9
f 110/277/9 108/280/9 106/281/9
f 120/279/9 112/144/9 110/277/9
f 112/144/9 116/143/9 114/282/9
f 112/144/9 120/279/9 118/142/9
f 104/278/9 110/277/9 106/281/9
f 106/154/31 105/145/31 104/147/31
f 104/147/32 103/146/32 120/149/32
f 111/283/8 115/284/8 117/285/8
f 115/284/8 111/283/8 113/286/8
f 105/287/8 107/288/8 109/152/8
f 109/152/8 103/151/8 105/287/8
f 111/283/8 117/285/8 119/150/8
f 119/150/8 109/152/8 111/283/8
f 108/156/33 107/153/33 106/154/33
f 110/289/34 109/155/34 108/156/34
f 112/290/35 111/157/35 110/159/35
f 114/291/36 113/160/36 112/162/36
f 114/292/37 116/163/37 113/164/37
f 116/293/38 118/165/38 115/167/38
f 120/149/39 119/148/39 118/165/39
f 136/168/9 122/294/9 138/295/9
f 122/294/9 126/170/9 124/296/9
f 126/170/9 130/297/9 128/298/9
f 130/297/9 134/169/9 132/299/9
f 126/170/9 122/294/9 136/168/9
f 134/169/9 130/297/9 126/170/9
f 124/177/31 123/171/31 122/173/31
f 138/177/32 122/173/32 137/171/32
f 129/300/8 133/301/8 135/174/8
f 133/301/8 129/300/8 131/302/8
f 129/300/8 125/176/8 127/303/8
f 125/176/8 121/175/8 123/304/8
f 121/175/8 135/174/8 137/305/8
f 135/174/8 125/176/8 129/300/8
f 126/173/33 125/172/33 124/177/33
f 128/306/40 127/178/40 126/180/40
f 132/307/41 131/181/41 130/183/41
f 132/307/37 134/184/37 131/181/37
f 136/187/38 135/186/38 134/184/38
f 138/177/39 137/171/39 136/187/39
f 143/308/9 144/188/9 139/190/9
f 145/309/8 146/191/8 141/193/8
f 146/310/35 145/194/35 143/196/35
f 151/311/9 152/197/9 147/199/9
f 153/312/8 154/200/8 149/202/8
f 154/313/35 153/203/35 151/205/35
f 35/314/9 11/315/9 3/208/9
f 3/208/64 2/316/64 10/206/64
f 34/207/65 35/314/65 3/208/65
f 36/209/9 33/317/9 9/20/9
f 4/22/8 12/244/8 36/209/8
f 36/209/8 1/19/8 4/22/8
f 83/318/44 84/210/44 74/212/44
f 83/319/9 74/213/9 20/215/9
f 73/101/8 42/100/8 76/111/8
f 73/91/45 76/216/45 8/218/45
f 82/320/66 40/219/66 81/221/66
f 71/102/67 40/222/67 80/112/67
f 19/321/47 7/224/47 80/225/47
f 81/221/9 72/220/9 19/227/9
f 159/229/9 157/228/9 155/322/9
f 155/322/9 156/323/9 159/229/9
f 163/324/35 162/231/35 161/233/35
f 22/325/68 23/325/68 24/325/68
f 22/325/69 21/325/69 25/325/69
f 24/325/68 23/325/68 27/325/68
f 37/325/9 29/325/9 9/325/9
f 29/325/70 47/325/70 45/325/70
f 31/325/71 10/325/71 46/325/71
f 38/325/72 54/325/72 52/325/72
f 31/325/9 38/325/9 34/325/9
f 37/325/73 33/325/73 51/325/73
f 75/325/74 36/325/74 12/325/74
f 57/325/30 61/325/30 59/325/30
f 56/325/75 10/325/75 9/325/75
f 57/325/28 45/325/28 46/325/28
f 56/325/28 58/325/28 46/325/28
f 55/325/76 9/325/76 45/325/76
f 59/325/28 61/325/28 62/325/28
f 56/325/29 60/325/29 62/325/29
f 62/325/29 92/325/29 90/325/29
f 55/325/77 59/325/77 60/325/77
f 70/325/22 64/325/22 96/325/22
f 70/325/22 68/325/22 63/325/22
f 75/325/13 78/325/13 65/325/13
f 72/325/23 40/325/23 7/325/23
f 42/325/23 8/325/23 73/325/23
f 7/325/23 40/325/23 71/325/23
f 42/325/23 74/325/23 8/325/23
f 78/325/78 75/325/78 77/325/78
f 81/325/3 82/325/3 80/325/3
f 35/325/78 78/325/78 79/325/78
f 83/325/3 20/325/3 76/325/3
f 89/325/15 90/325/15 92/325/15
f 57/325/30 89/325/30 91/325/30
f 61/325/28 91/325/28 92/325/28
f 63/325/22 68/325/22 95/325/22
f 97/325/15 100/325/15 99/325/15
f 145/325/1 141/325/1 140/325/1
f 143/325/24 139/325/24 142/325/24
f 140/325/68 141/325/68 142/325/68
f 153/325/1 149/325/1 148/325/1
f 151/325/24 147/325/24 150/325/24
f 148/325/68 149/325/68 150/325/68
f 21/325/68 22/325/68 24/325/68
f 26/325/69 22/325/69 25/325/69
f 28/325/68 24/325/68 27/325/68
f 33/325/9 37/325/9 9/325/9
f 9/325/79 29/325/79 45/325/79
f 49/325/80 31/325/80 46/325/80
f 34/325/81 38/325/81 52/325/81
f 10/325/82 31/325/82 34/325/82
f 53/325/83 37/325/83 51/325/83
f 77/325/84 75/325/84 12/325/84
f 55/325/30 57/325/30 59/325/30
f 55/325/85 56/325/85 9/325/85
f 58/325/28 57/325/28 46/325/28
f 10/325/86 56/325/86 46/325/86
f 57/325/28 55/325/28 45/325/28
f 60/325/28 59/325/28 62/325/28
f 58/325/29 56/325/29 62/325/29
f 58/325/29 62/325/29 90/325/29
f 56/325/77 55/325/77 60/325/77
f 64/325/22 70/325/22 63/325/22
f 75/325/13 66/325/13 36/325/13
f 78/325/13 35/325/13 65/325/13
f 65/325/13 66/325/13 75/325/13
f 79/325/74 78/325/74 77/325/74
f 19/325/3 81/325/3 80/325/3
f 11/325/74 35/325/74 79/325/74
f 84/325/3 83/325/3 76/325/3
f 91/325/15 89/325/15 92/325/15
f 61/325/30 57/325/30 91/325/30
f 62/325/28 61/325/28 92/325/28
f 100/325/15 97/325/15 98/325/15
f 97/325/15 99/325/15 101/325/15
f 98/325/15 102/325/15 100/325/15
f 144/325/1 145/325/1 140/325/1
f 146/325/24 143/325/24 142/325/24
f 139/325/68 140/325/68 142/325/68
f 152/325/1 153/325/1 148/325/1
f 154/325/24 151/325/24 150/325/24
f 147/325/68 148/325/68 150/325/68
